<?xml version="1.0" encoding="UTF-8"?>
<svg width="218px" height="101px" viewBox="0 0 218 101" version="1.1" xmlns="http://www.w3.org/2000/svg" xmlns:xlink="http://www.w3.org/1999/xlink">
    <!-- Generator: Sketch 46.1 (44463) - http://www.bohemiancoding.com/sketch -->
    <title>Group 10</title>
    <desc>Created with Sketch.</desc>
    <defs>
        <filter x="-4.3%" y="-150.0%" width="108.1%" height="475.0%" filterUnits="objectBoundingBox" id="filter-1">
            <feOffset dx="0" dy="2" in="SourceAlpha" result="shadowOffsetOuter1"></feOffset>
            <feGaussianBlur stdDeviation="2" in="shadowOffsetOuter1" result="shadowBlurOuter1"></feGaussianBlur>
            <feColorMatrix values="0 0 0 0 1   0 0 0 0 1   0 0 0 0 1  0 0 0 0.5 0" type="matrix" in="shadowBlurOuter1" result="shadowMatrixOuter1"></feColorMatrix>
            <feMerge>
                <feMergeNode in="shadowMatrixOuter1"></feMergeNode>
                <feMergeNode in="SourceGraphic"></feMergeNode>
            </feMerge>
        </filter>
        <text id="text-2" font-family="BanglaMN, Bangla MN" font-size="48" font-weight="normal" letter-spacing="2.29999995" fill="#947870">
            <tspan x="54" y="53">Lippel</tspan>
        </text>
        <filter x="-1.4%" y="-4.6%" width="103.7%" height="112.3%" filterUnits="objectBoundingBox" id="filter-3">
            <feOffset dx="1" dy="1" in="SourceAlpha" result="shadowOffsetOuter1"></feOffset>
            <feGaussianBlur stdDeviation="1" in="shadowOffsetOuter1" result="shadowBlurOuter1"></feGaussianBlur>
            <feColorMatrix values="0 0 0 0 0.472443665   0 0 0 0 0.46442793   0 0 0 0 0.46442793  0 0 0 0.723816803 0" type="matrix" in="shadowBlurOuter1"></feColorMatrix>
        </filter>
    </defs>
    <g id="Page-1" stroke="none" stroke-width="1" fill="none" fill-rule="evenodd">
        <g id="Group-10" transform="translate(-1.000000, -7.000000)">
            <g id="Group-5" transform="translate(108.500000, 79.000000) rotate(-2.000000) translate(-108.500000, -79.000000) translate(1.000000, 56.000000)">
                <g id="Group-4" transform="translate(30.889845, 1.120116)">
                    <path d="M11.9465587,7.10542736e-15 L182.895756,1.78247974 C182.930327,4.28240074 182.930327,5.93820864 182.895756,6.74990344 C182.788685,9.26386493 182.324677,10.1378219 180.858482,10.4568464 C178.682193,10.9303784 118.887163,21.1972941 1.4733932,41.2575937 L11.9465587,7.10542736e-15 Z M175.699044,6.87626561 C176.60509,6.87626561 177.339586,6.17658175 177.339586,5.31347797 C177.339586,4.45037419 176.60509,3.75069033 175.699044,3.75069033 C174.792997,3.75069033 174.058501,4.45037419 174.058501,5.31347797 C174.058501,6.17658175 174.792997,6.87626561 175.699044,6.87626561 Z" id="Combined-Shape" fill="#D8D8D8"></path>
                    <g id="Group-3" filter="url(#filter-1)" transform="translate(91.862821, 25.723627) rotate(-10.000000) translate(-91.862821, -25.723627) translate(-0.637179, 23.723627)" fill="#FFFFFF">
                        <g id="Group-2" transform="translate(36.748160, -0.000000)">
                            <polygon id="Triangle-2" transform="translate(9.032771, 1.471680) rotate(-9.000000) translate(-9.032771, -1.471680) " points="8.16656402 0.177692154 9.21389212 1.7422497 9.89897733 2.76566848 9.41924484 2.76566848 8.67040854 2.76566848"></polygon>
                            <polygon id="Triangle-2" transform="translate(7.720336, 1.471680) rotate(-9.000000) translate(-7.720336, -1.471680) " points="6.85412974 0.177692154 7.90145784 1.7422497 8.58654305 2.76566848 8.10681057 2.76566848 7.35797426 2.76566848"></polygon>
                            <polygon id="Triangle-2" transform="translate(6.407902, 1.471680) rotate(-9.000000) translate(-6.407902, -1.471680) " points="5.54169546 0.177692154 6.58902356 1.7422497 7.27410878 2.76566848 6.79437629 2.76566848 6.04553998 2.76566848"></polygon>
                            <polygon id="Triangle-2" transform="translate(5.095468, 1.471680) rotate(-9.000000) translate(-5.095468, -1.471680) " points="4.22926118 0.177692154 5.27658928 1.7422497 5.9616745 2.76566848 5.48194201 2.76566848 4.7331057 2.76566848"></polygon>
                            <polygon id="Triangle-2" transform="translate(3.783034, 1.471680) rotate(-9.000000) translate(-3.783034, -1.471680) " points="2.9168269 0.177692154 3.96415501 1.7422497 4.64924022 2.76566848 4.16950773 2.76566848 3.42067143 2.76566848"></polygon>
                            <polygon id="Triangle-2" transform="translate(1.158165, 1.471680) rotate(-9.000000) translate(-1.158165, -1.471680) " points="0.291958347 0.177692154 1.33928645 1.7422497 2.02437166 2.76566848 1.54463918 2.76566848 0.79580287 2.76566848"></polygon>
                            <polygon id="Triangle-2" transform="translate(2.470599, 1.471680) rotate(-9.000000) translate(-2.470599, -1.471680) " points="1.60439263 0.177692154 2.65172073 1.7422497 3.33680594 2.76566848 2.85707345 2.76566848 2.10823715 2.76566848"></polygon>
                        </g>
                        <g id="Group-2" transform="translate(45.935200, -0.000000)">
                            <polygon id="Triangle-2" transform="translate(9.032771, 1.471680) rotate(-9.000000) translate(-9.032771, -1.471680) " points="8.16656402 0.177692154 9.21389212 1.7422497 9.89897733 2.76566848 9.41924484 2.76566848 8.67040854 2.76566848"></polygon>
                            <polygon id="Triangle-2" transform="translate(7.720336, 1.471680) rotate(-9.000000) translate(-7.720336, -1.471680) " points="6.85412974 0.177692154 7.90145784 1.7422497 8.58654305 2.76566848 8.10681057 2.76566848 7.35797426 2.76566848"></polygon>
                            <polygon id="Triangle-2" transform="translate(6.407902, 1.471680) rotate(-9.000000) translate(-6.407902, -1.471680) " points="5.54169546 0.177692154 6.58902356 1.7422497 7.27410878 2.76566848 6.79437629 2.76566848 6.04553998 2.76566848"></polygon>
                            <polygon id="Triangle-2" transform="translate(5.095468, 1.471680) rotate(-9.000000) translate(-5.095468, -1.471680) " points="4.22926118 0.177692154 5.27658928 1.7422497 5.9616745 2.76566848 5.48194201 2.76566848 4.7331057 2.76566848"></polygon>
                            <polygon id="Triangle-2" transform="translate(3.783034, 1.471680) rotate(-9.000000) translate(-3.783034, -1.471680) " points="2.9168269 0.177692154 3.96415501 1.7422497 4.64924022 2.76566848 4.16950773 2.76566848 3.42067143 2.76566848"></polygon>
                            <polygon id="Triangle-2" transform="translate(1.158165, 1.471680) rotate(-9.000000) translate(-1.158165, -1.471680) " points="0.291958347 0.177692154 1.33928645 1.7422497 2.02437166 2.76566848 1.54463918 2.76566848 0.79580287 2.76566848"></polygon>
                            <polygon id="Triangle-2" transform="translate(2.470599, 1.471680) rotate(-9.000000) translate(-2.470599, -1.471680) " points="1.60439263 0.177692154 2.65172073 1.7422497 3.33680594 2.76566848 2.85707345 2.76566848 2.10823715 2.76566848"></polygon>
                        </g>
                        <g id="Group-2" transform="translate(55.122240, -0.000000)">
                            <polygon id="Triangle-2" transform="translate(9.032771, 1.471680) rotate(-9.000000) translate(-9.032771, -1.471680) " points="8.16656402 0.177692154 9.21389212 1.7422497 9.89897733 2.76566848 9.41924484 2.76566848 8.67040854 2.76566848"></polygon>
                            <polygon id="Triangle-2" transform="translate(7.720336, 1.471680) rotate(-9.000000) translate(-7.720336, -1.471680) " points="6.85412974 0.177692154 7.90145784 1.7422497 8.58654305 2.76566848 8.10681057 2.76566848 7.35797426 2.76566848"></polygon>
                            <polygon id="Triangle-2" transform="translate(6.407902, 1.471680) rotate(-9.000000) translate(-6.407902, -1.471680) " points="5.54169546 0.177692154 6.58902356 1.7422497 7.27410878 2.76566848 6.79437629 2.76566848 6.04553998 2.76566848"></polygon>
                            <polygon id="Triangle-2" transform="translate(5.095468, 1.471680) rotate(-9.000000) translate(-5.095468, -1.471680) " points="4.22926118 0.177692154 5.27658928 1.7422497 5.9616745 2.76566848 5.48194201 2.76566848 4.7331057 2.76566848"></polygon>
                            <polygon id="Triangle-2" transform="translate(3.783034, 1.471680) rotate(-9.000000) translate(-3.783034, -1.471680) " points="2.9168269 0.177692154 3.96415501 1.7422497 4.64924022 2.76566848 4.16950773 2.76566848 3.42067143 2.76566848"></polygon>
                            <polygon id="Triangle-2" transform="translate(1.158165, 1.471680) rotate(-9.000000) translate(-1.158165, -1.471680) " points="0.291958347 0.177692154 1.33928645 1.7422497 2.02437166 2.76566848 1.54463918 2.76566848 0.79580287 2.76566848"></polygon>
                            <polygon id="Triangle-2" transform="translate(2.470599, 1.471680) rotate(-9.000000) translate(-2.470599, -1.471680) " points="1.60439263 0.177692154 2.65172073 1.7422497 3.33680594 2.76566848 2.85707345 2.76566848 2.10823715 2.76566848"></polygon>
                        </g>
                        <g id="Group-2" transform="translate(64.309280, -0.000000)">
                            <polygon id="Triangle-2" transform="translate(9.032771, 1.471680) rotate(-9.000000) translate(-9.032771, -1.471680) " points="8.16656402 0.177692154 9.21389212 1.7422497 9.89897733 2.76566848 9.41924484 2.76566848 8.67040854 2.76566848"></polygon>
                            <polygon id="Triangle-2" transform="translate(7.720336, 1.471680) rotate(-9.000000) translate(-7.720336, -1.471680) " points="6.85412974 0.177692154 7.90145784 1.7422497 8.58654305 2.76566848 8.10681057 2.76566848 7.35797426 2.76566848"></polygon>
                            <polygon id="Triangle-2" transform="translate(6.407902, 1.471680) rotate(-9.000000) translate(-6.407902, -1.471680) " points="5.54169546 0.177692154 6.58902356 1.7422497 7.27410878 2.76566848 6.79437629 2.76566848 6.04553998 2.76566848"></polygon>
                            <polygon id="Triangle-2" transform="translate(5.095468, 1.471680) rotate(-9.000000) translate(-5.095468, -1.471680) " points="4.22926118 0.177692154 5.27658928 1.7422497 5.9616745 2.76566848 5.48194201 2.76566848 4.7331057 2.76566848"></polygon>
                            <polygon id="Triangle-2" transform="translate(3.783034, 1.471680) rotate(-9.000000) translate(-3.783034, -1.471680) " points="2.9168269 0.177692154 3.96415501 1.7422497 4.64924022 2.76566848 4.16950773 2.76566848 3.42067143 2.76566848"></polygon>
                            <polygon id="Triangle-2" transform="translate(1.158165, 1.471680) rotate(-9.000000) translate(-1.158165, -1.471680) " points="0.291958347 0.177692154 1.33928645 1.7422497 2.02437166 2.76566848 1.54463918 2.76566848 0.79580287 2.76566848"></polygon>
                            <polygon id="Triangle-2" transform="translate(2.470599, 1.471680) rotate(-9.000000) translate(-2.470599, -1.471680) " points="1.60439263 0.177692154 2.65172073 1.7422497 3.33680594 2.76566848 2.85707345 2.76566848 2.10823715 2.76566848"></polygon>
                        </g>
                        <g id="Group-2" transform="translate(73.496320, -0.000000)">
                            <polygon id="Triangle-2" transform="translate(9.032771, 1.471680) rotate(-9.000000) translate(-9.032771, -1.471680) " points="8.16656402 0.177692154 9.21389212 1.7422497 9.89897733 2.76566848 9.41924484 2.76566848 8.67040854 2.76566848"></polygon>
                            <polygon id="Triangle-2" transform="translate(7.720336, 1.471680) rotate(-9.000000) translate(-7.720336, -1.471680) " points="6.85412974 0.177692154 7.90145784 1.7422497 8.58654305 2.76566848 8.10681057 2.76566848 7.35797426 2.76566848"></polygon>
                            <polygon id="Triangle-2" transform="translate(6.407902, 1.471680) rotate(-9.000000) translate(-6.407902, -1.471680) " points="5.54169546 0.177692154 6.58902356 1.7422497 7.27410878 2.76566848 6.79437629 2.76566848 6.04553998 2.76566848"></polygon>
                            <polygon id="Triangle-2" transform="translate(5.095468, 1.471680) rotate(-9.000000) translate(-5.095468, -1.471680) " points="4.22926118 0.177692154 5.27658928 1.7422497 5.9616745 2.76566848 5.48194201 2.76566848 4.7331057 2.76566848"></polygon>
                            <polygon id="Triangle-2" transform="translate(3.783034, 1.471680) rotate(-9.000000) translate(-3.783034, -1.471680) " points="2.9168269 0.177692154 3.96415501 1.7422497 4.64924022 2.76566848 4.16950773 2.76566848 3.42067143 2.76566848"></polygon>
                            <polygon id="Triangle-2" transform="translate(1.158165, 1.471680) rotate(-9.000000) translate(-1.158165, -1.471680) " points="0.291958347 0.177692154 1.33928645 1.7422497 2.02437166 2.76566848 1.54463918 2.76566848 0.79580287 2.76566848"></polygon>
                            <polygon id="Triangle-2" transform="translate(2.470599, 1.471680) rotate(-9.000000) translate(-2.470599, -1.471680) " points="1.60439263 0.177692154 2.65172073 1.7422497 3.33680594 2.76566848 2.85707345 2.76566848 2.10823715 2.76566848"></polygon>
                        </g>
                        <g id="Group-2" transform="translate(91.870399, -0.000000)">
                            <polygon id="Triangle-2" transform="translate(9.032771, 1.471680) rotate(-9.000000) translate(-9.032771, -1.471680) " points="8.16656402 0.177692154 9.21389212 1.7422497 9.89897733 2.76566848 9.41924484 2.76566848 8.67040854 2.76566848"></polygon>
                            <polygon id="Triangle-2" transform="translate(7.720336, 1.471680) rotate(-9.000000) translate(-7.720336, -1.471680) " points="6.85412974 0.177692154 7.90145784 1.7422497 8.58654305 2.76566848 8.10681057 2.76566848 7.35797426 2.76566848"></polygon>
                            <polygon id="Triangle-2" transform="translate(6.407902, 1.471680) rotate(-9.000000) translate(-6.407902, -1.471680) " points="5.54169546 0.177692154 6.58902356 1.7422497 7.27410878 2.76566848 6.79437629 2.76566848 6.04553998 2.76566848"></polygon>
                            <polygon id="Triangle-2" transform="translate(5.095468, 1.471680) rotate(-9.000000) translate(-5.095468, -1.471680) " points="4.22926118 0.177692154 5.27658928 1.7422497 5.9616745 2.76566848 5.48194201 2.76566848 4.7331057 2.76566848"></polygon>
                            <polygon id="Triangle-2" transform="translate(3.783034, 1.471680) rotate(-9.000000) translate(-3.783034, -1.471680) " points="2.9168269 0.177692154 3.96415501 1.7422497 4.64924022 2.76566848 4.16950773 2.76566848 3.42067143 2.76566848"></polygon>
                            <polygon id="Triangle-2" transform="translate(1.158165, 1.471680) rotate(-9.000000) translate(-1.158165, -1.471680) " points="0.291958347 0.177692154 1.33928645 1.7422497 2.02437166 2.76566848 1.54463918 2.76566848 0.79580287 2.76566848"></polygon>
                            <polygon id="Triangle-2" transform="translate(2.470599, 1.471680) rotate(-9.000000) translate(-2.470599, -1.471680) " points="1.60439263 0.177692154 2.65172073 1.7422497 3.33680594 2.76566848 2.85707345 2.76566848 2.10823715 2.76566848"></polygon>
                        </g>
                        <g id="Group-2" transform="translate(100.401222, -0.000000)">
                            <polygon id="Triangle-2" transform="translate(9.032771, 1.471680) rotate(-9.000000) translate(-9.032771, -1.471680) " points="8.16656402 0.177692154 9.21389212 1.7422497 9.89897733 2.76566848 9.41924484 2.76566848 8.67040854 2.76566848"></polygon>
                            <polygon id="Triangle-2" transform="translate(7.720336, 1.471680) rotate(-9.000000) translate(-7.720336, -1.471680) " points="6.85412974 0.177692154 7.90145784 1.7422497 8.58654305 2.76566848 8.10681057 2.76566848 7.35797426 2.76566848"></polygon>
                            <polygon id="Triangle-2" transform="translate(6.407902, 1.471680) rotate(-9.000000) translate(-6.407902, -1.471680) " points="5.54169546 0.177692154 6.58902356 1.7422497 7.27410878 2.76566848 6.79437629 2.76566848 6.04553998 2.76566848"></polygon>
                            <polygon id="Triangle-2" transform="translate(5.095468, 1.471680) rotate(-9.000000) translate(-5.095468, -1.471680) " points="4.22926118 0.177692154 5.27658928 1.7422497 5.9616745 2.76566848 5.48194201 2.76566848 4.7331057 2.76566848"></polygon>
                            <polygon id="Triangle-2" transform="translate(3.783034, 1.471680) rotate(-9.000000) translate(-3.783034, -1.471680) " points="2.9168269 0.177692154 3.96415501 1.7422497 4.64924022 2.76566848 4.16950773 2.76566848 3.42067143 2.76566848"></polygon>
                            <polygon id="Triangle-2" transform="translate(1.158165, 1.471680) rotate(-9.000000) translate(-1.158165, -1.471680) " points="0.291958347 0.177692154 1.33928645 1.7422497 2.02437166 2.76566848 1.54463918 2.76566848 0.79580287 2.76566848"></polygon>
                            <polygon id="Triangle-2" transform="translate(2.470599, 1.471680) rotate(-9.000000) translate(-2.470599, -1.471680) " points="1.60439263 0.177692154 2.65172073 1.7422497 3.33680594 2.76566848 2.85707345 2.76566848 2.10823715 2.76566848"></polygon>
                        </g>
                        <g id="Group-2" transform="translate(82.683360, -0.000000)">
                            <polygon id="Triangle-2" transform="translate(9.032771, 1.471680) rotate(-9.000000) translate(-9.032771, -1.471680) " points="8.16656402 0.177692154 9.21389212 1.7422497 9.89897733 2.76566848 9.41924484 2.76566848 8.67040854 2.76566848"></polygon>
                            <polygon id="Triangle-2" transform="translate(7.720336, 1.471680) rotate(-9.000000) translate(-7.720336, -1.471680) " points="6.85412974 0.177692154 7.90145784 1.7422497 8.58654305 2.76566848 8.10681057 2.76566848 7.35797426 2.76566848"></polygon>
                            <polygon id="Triangle-2" transform="translate(6.407902, 1.471680) rotate(-9.000000) translate(-6.407902, -1.471680) " points="5.54169546 0.177692154 6.58902356 1.7422497 7.27410878 2.76566848 6.79437629 2.76566848 6.04553998 2.76566848"></polygon>
                            <polygon id="Triangle-2" transform="translate(5.095468, 1.471680) rotate(-9.000000) translate(-5.095468, -1.471680) " points="4.22926118 0.177692154 5.27658928 1.7422497 5.9616745 2.76566848 5.48194201 2.76566848 4.7331057 2.76566848"></polygon>
                            <polygon id="Triangle-2" transform="translate(3.783034, 1.471680) rotate(-9.000000) translate(-3.783034, -1.471680) " points="2.9168269 0.177692154 3.96415501 1.7422497 4.64924022 2.76566848 4.16950773 2.76566848 3.42067143 2.76566848"></polygon>
                            <polygon id="Triangle-2" transform="translate(1.158165, 1.471680) rotate(-9.000000) translate(-1.158165, -1.471680) " points="0.291958347 0.177692154 1.33928645 1.7422497 2.02437166 2.76566848 1.54463918 2.76566848 0.79580287 2.76566848"></polygon>
                            <polygon id="Triangle-2" transform="translate(2.470599, 1.471680) rotate(-9.000000) translate(-2.470599, -1.471680) " points="1.60439263 0.177692154 2.65172073 1.7422497 3.33680594 2.76566848 2.85707345 2.76566848 2.10823715 2.76566848"></polygon>
                        </g>
                        <g id="Group-2" transform="translate(64.309280, -0.000000)">
                            <polygon id="Triangle-2" transform="translate(9.032771, 1.471680) rotate(-9.000000) translate(-9.032771, -1.471680) " points="8.16656402 0.177692154 9.21389212 1.7422497 9.89897733 2.76566848 9.41924484 2.76566848 8.67040854 2.76566848"></polygon>
                            <polygon id="Triangle-2" transform="translate(7.720336, 1.471680) rotate(-9.000000) translate(-7.720336, -1.471680) " points="6.85412974 0.177692154 7.90145784 1.7422497 8.58654305 2.76566848 8.10681057 2.76566848 7.35797426 2.76566848"></polygon>
                            <polygon id="Triangle-2" transform="translate(6.407902, 1.471680) rotate(-9.000000) translate(-6.407902, -1.471680) " points="5.54169546 0.177692154 6.58902356 1.7422497 7.27410878 2.76566848 6.79437629 2.76566848 6.04553998 2.76566848"></polygon>
                            <polygon id="Triangle-2" transform="translate(5.095468, 1.471680) rotate(-9.000000) translate(-5.095468, -1.471680) " points="4.22926118 0.177692154 5.27658928 1.7422497 5.9616745 2.76566848 5.48194201 2.76566848 4.7331057 2.76566848"></polygon>
                            <polygon id="Triangle-2" transform="translate(3.783034, 1.471680) rotate(-9.000000) translate(-3.783034, -1.471680) " points="2.9168269 0.177692154 3.96415501 1.7422497 4.64924022 2.76566848 4.16950773 2.76566848 3.42067143 2.76566848"></polygon>
                            <polygon id="Triangle-2" transform="translate(1.158165, 1.471680) rotate(-9.000000) translate(-1.158165, -1.471680) " points="0.291958347 0.177692154 1.33928645 1.7422497 2.02437166 2.76566848 1.54463918 2.76566848 0.79580287 2.76566848"></polygon>
                            <polygon id="Triangle-2" transform="translate(2.470599, 1.471680) rotate(-9.000000) translate(-2.470599, -1.471680) " points="1.60439263 0.177692154 2.65172073 1.7422497 3.33680594 2.76566848 2.85707345 2.76566848 2.10823715 2.76566848"></polygon>
                        </g>
                        <g id="Group-2" transform="translate(73.496320, -0.000000)">
                            <polygon id="Triangle-2" transform="translate(9.032771, 1.471680) rotate(-9.000000) translate(-9.032771, -1.471680) " points="8.16656402 0.177692154 9.21389212 1.7422497 9.89897733 2.76566848 9.41924484 2.76566848 8.67040854 2.76566848"></polygon>
                            <polygon id="Triangle-2" transform="translate(7.720336, 1.471680) rotate(-9.000000) translate(-7.720336, -1.471680) " points="6.85412974 0.177692154 7.90145784 1.7422497 8.58654305 2.76566848 8.10681057 2.76566848 7.35797426 2.76566848"></polygon>
                            <polygon id="Triangle-2" transform="translate(6.407902, 1.471680) rotate(-9.000000) translate(-6.407902, -1.471680) " points="5.54169546 0.177692154 6.58902356 1.7422497 7.27410878 2.76566848 6.79437629 2.76566848 6.04553998 2.76566848"></polygon>
                            <polygon id="Triangle-2" transform="translate(5.095468, 1.471680) rotate(-9.000000) translate(-5.095468, -1.471680) " points="4.22926118 0.177692154 5.27658928 1.7422497 5.9616745 2.76566848 5.48194201 2.76566848 4.7331057 2.76566848"></polygon>
                            <polygon id="Triangle-2" transform="translate(3.783034, 1.471680) rotate(-9.000000) translate(-3.783034, -1.471680) " points="2.9168269 0.177692154 3.96415501 1.7422497 4.64924022 2.76566848 4.16950773 2.76566848 3.42067143 2.76566848"></polygon>
                            <polygon id="Triangle-2" transform="translate(1.158165, 1.471680) rotate(-9.000000) translate(-1.158165, -1.471680) " points="0.291958347 0.177692154 1.33928645 1.7422497 2.02437166 2.76566848 1.54463918 2.76566848 0.79580287 2.76566848"></polygon>
                            <polygon id="Triangle-2" transform="translate(2.470599, 1.471680) rotate(-9.000000) translate(-2.470599, -1.471680) " points="1.60439263 0.177692154 2.65172073 1.7422497 3.33680594 2.76566848 2.85707345 2.76566848 2.10823715 2.76566848"></polygon>
                        </g>
                        <g id="Group-2" transform="translate(91.870399, -0.000000)">
                            <polygon id="Triangle-2" transform="translate(9.032771, 1.471680) rotate(-9.000000) translate(-9.032771, -1.471680) " points="8.16656402 0.177692154 9.21389212 1.7422497 9.89897733 2.76566848 9.41924484 2.76566848 8.67040854 2.76566848"></polygon>
                            <polygon id="Triangle-2" transform="translate(7.720336, 1.471680) rotate(-9.000000) translate(-7.720336, -1.471680) " points="6.85412974 0.177692154 7.90145784 1.7422497 8.58654305 2.76566848 8.10681057 2.76566848 7.35797426 2.76566848"></polygon>
                            <polygon id="Triangle-2" transform="translate(6.407902, 1.471680) rotate(-9.000000) translate(-6.407902, -1.471680) " points="5.54169546 0.177692154 6.58902356 1.7422497 7.27410878 2.76566848 6.79437629 2.76566848 6.04553998 2.76566848"></polygon>
                            <polygon id="Triangle-2" transform="translate(5.095468, 1.471680) rotate(-9.000000) translate(-5.095468, -1.471680) " points="4.22926118 0.177692154 5.27658928 1.7422497 5.9616745 2.76566848 5.48194201 2.76566848 4.7331057 2.76566848"></polygon>
                            <polygon id="Triangle-2" transform="translate(3.783034, 1.471680) rotate(-9.000000) translate(-3.783034, -1.471680) " points="2.9168269 0.177692154 3.96415501 1.7422497 4.64924022 2.76566848 4.16950773 2.76566848 3.42067143 2.76566848"></polygon>
                            <polygon id="Triangle-2" transform="translate(1.158165, 1.471680) rotate(-9.000000) translate(-1.158165, -1.471680) " points="0.291958347 0.177692154 1.33928645 1.7422497 2.02437166 2.76566848 1.54463918 2.76566848 0.79580287 2.76566848"></polygon>
                            <polygon id="Triangle-2" transform="translate(2.470599, 1.471680) rotate(-9.000000) translate(-2.470599, -1.471680) " points="1.60439263 0.177692154 2.65172073 1.7422497 3.33680594 2.76566848 2.85707345 2.76566848 2.10823715 2.76566848"></polygon>
                        </g>
                        <g id="Group-2" transform="translate(100.401222, -0.000000)">
                            <polygon id="Triangle-2" transform="translate(9.032771, 1.471680) rotate(-9.000000) translate(-9.032771, -1.471680) " points="8.16656402 0.177692154 9.21389212 1.7422497 9.89897733 2.76566848 9.41924484 2.76566848 8.67040854 2.76566848"></polygon>
                            <polygon id="Triangle-2" transform="translate(7.720336, 1.471680) rotate(-9.000000) translate(-7.720336, -1.471680) " points="6.85412974 0.177692154 7.90145784 1.7422497 8.58654305 2.76566848 8.10681057 2.76566848 7.35797426 2.76566848"></polygon>
                            <polygon id="Triangle-2" transform="translate(6.407902, 1.471680) rotate(-9.000000) translate(-6.407902, -1.471680) " points="5.54169546 0.177692154 6.58902356 1.7422497 7.27410878 2.76566848 6.79437629 2.76566848 6.04553998 2.76566848"></polygon>
                            <polygon id="Triangle-2" transform="translate(5.095468, 1.471680) rotate(-9.000000) translate(-5.095468, -1.471680) " points="4.22926118 0.177692154 5.27658928 1.7422497 5.9616745 2.76566848 5.48194201 2.76566848 4.7331057 2.76566848"></polygon>
                            <polygon id="Triangle-2" transform="translate(3.783034, 1.471680) rotate(-9.000000) translate(-3.783034, -1.471680) " points="2.9168269 0.177692154 3.96415501 1.7422497 4.64924022 2.76566848 4.16950773 2.76566848 3.42067143 2.76566848"></polygon>
                            <polygon id="Triangle-2" transform="translate(1.158165, 1.471680) rotate(-9.000000) translate(-1.158165, -1.471680) " points="0.291958347 0.177692154 1.33928645 1.7422497 2.02437166 2.76566848 1.54463918 2.76566848 0.79580287 2.76566848"></polygon>
                            <polygon id="Triangle-2" transform="translate(2.470599, 1.471680) rotate(-9.000000) translate(-2.470599, -1.471680) " points="1.60439263 0.177692154 2.65172073 1.7422497 3.33680594 2.76566848 2.85707345 2.76566848 2.10823715 2.76566848"></polygon>
                        </g>
                        <g id="Group-2" transform="translate(82.683360, -0.000000)">
                            <polygon id="Triangle-2" transform="translate(9.032771, 1.471680) rotate(-9.000000) translate(-9.032771, -1.471680) " points="8.16656402 0.177692154 9.21389212 1.7422497 9.89897733 2.76566848 9.41924484 2.76566848 8.67040854 2.76566848"></polygon>
                            <polygon id="Triangle-2" transform="translate(7.720336, 1.471680) rotate(-9.000000) translate(-7.720336, -1.471680) " points="6.85412974 0.177692154 7.90145784 1.7422497 8.58654305 2.76566848 8.10681057 2.76566848 7.35797426 2.76566848"></polygon>
                            <polygon id="Triangle-2" transform="translate(6.407902, 1.471680) rotate(-9.000000) translate(-6.407902, -1.471680) " points="5.54169546 0.177692154 6.58902356 1.7422497 7.27410878 2.76566848 6.79437629 2.76566848 6.04553998 2.76566848"></polygon>
                            <polygon id="Triangle-2" transform="translate(5.095468, 1.471680) rotate(-9.000000) translate(-5.095468, -1.471680) " points="4.22926118 0.177692154 5.27658928 1.7422497 5.9616745 2.76566848 5.48194201 2.76566848 4.7331057 2.76566848"></polygon>
                            <polygon id="Triangle-2" transform="translate(3.783034, 1.471680) rotate(-9.000000) translate(-3.783034, -1.471680) " points="2.9168269 0.177692154 3.96415501 1.7422497 4.64924022 2.76566848 4.16950773 2.76566848 3.42067143 2.76566848"></polygon>
                            <polygon id="Triangle-2" transform="translate(1.158165, 1.471680) rotate(-9.000000) translate(-1.158165, -1.471680) " points="0.291958347 0.177692154 1.33928645 1.7422497 2.02437166 2.76566848 1.54463918 2.76566848 0.79580287 2.76566848"></polygon>
                            <polygon id="Triangle-2" transform="translate(2.470599, 1.471680) rotate(-9.000000) translate(-2.470599, -1.471680) " points="1.60439263 0.177692154 2.65172073 1.7422497 3.33680594 2.76566848 2.85707345 2.76566848 2.10823715 2.76566848"></polygon>
                        </g>
                        <g id="Group-2" transform="translate(109.588262, -0.000000)">
                            <polygon id="Triangle-2" transform="translate(9.032771, 1.471680) rotate(-9.000000) translate(-9.032771, -1.471680) " points="8.16656402 0.177692154 9.21389212 1.7422497 9.89897733 2.76566848 9.41924484 2.76566848 8.67040854 2.76566848"></polygon>
                            <polygon id="Triangle-2" transform="translate(7.720336, 1.471680) rotate(-9.000000) translate(-7.720336, -1.471680) " points="6.85412974 0.177692154 7.90145784 1.7422497 8.58654305 2.76566848 8.10681057 2.76566848 7.35797426 2.76566848"></polygon>
                            <polygon id="Triangle-2" transform="translate(6.407902, 1.471680) rotate(-9.000000) translate(-6.407902, -1.471680) " points="5.54169546 0.177692154 6.58902356 1.7422497 7.27410878 2.76566848 6.79437629 2.76566848 6.04553998 2.76566848"></polygon>
                            <polygon id="Triangle-2" transform="translate(5.095468, 1.471680) rotate(-9.000000) translate(-5.095468, -1.471680) " points="4.22926118 0.177692154 5.27658928 1.7422497 5.9616745 2.76566848 5.48194201 2.76566848 4.7331057 2.76566848"></polygon>
                            <polygon id="Triangle-2" transform="translate(3.783034, 1.471680) rotate(-9.000000) translate(-3.783034, -1.471680) " points="2.9168269 0.177692154 3.96415501 1.7422497 4.64924022 2.76566848 4.16950773 2.76566848 3.42067143 2.76566848"></polygon>
                            <polygon id="Triangle-2" transform="translate(1.158165, 1.471680) rotate(-9.000000) translate(-1.158165, -1.471680) " points="0.291958347 0.177692154 1.33928645 1.7422497 2.02437166 2.76566848 1.54463918 2.76566848 0.79580287 2.76566848"></polygon>
                            <polygon id="Triangle-2" transform="translate(2.470599, 1.471680) rotate(-9.000000) translate(-2.470599, -1.471680) " points="1.60439263 0.177692154 2.65172073 1.7422497 3.33680594 2.76566848 2.85707345 2.76566848 2.10823715 2.76566848"></polygon>
                        </g>
                        <g id="Group-2" transform="translate(127.962342, 0.000000)">
                            <polygon id="Triangle-2" transform="translate(9.032771, 1.471680) rotate(-9.000000) translate(-9.032771, -1.471680) " points="8.16656402 0.177692154 9.21389212 1.7422497 9.89897733 2.76566848 9.41924484 2.76566848 8.67040854 2.76566848"></polygon>
                            <polygon id="Triangle-2" transform="translate(7.720336, 1.471680) rotate(-9.000000) translate(-7.720336, -1.471680) " points="6.85412974 0.177692154 7.90145784 1.7422497 8.58654305 2.76566848 8.10681057 2.76566848 7.35797426 2.76566848"></polygon>
                            <polygon id="Triangle-2" transform="translate(6.407902, 1.471680) rotate(-9.000000) translate(-6.407902, -1.471680) " points="5.54169546 0.177692154 6.58902356 1.7422497 7.27410878 2.76566848 6.79437629 2.76566848 6.04553998 2.76566848"></polygon>
                            <polygon id="Triangle-2" transform="translate(5.095468, 1.471680) rotate(-9.000000) translate(-5.095468, -1.471680) " points="4.22926118 0.177692154 5.27658928 1.7422497 5.9616745 2.76566848 5.48194201 2.76566848 4.7331057 2.76566848"></polygon>
                            <polygon id="Triangle-2" transform="translate(3.783034, 1.471680) rotate(-9.000000) translate(-3.783034, -1.471680) " points="2.9168269 0.177692154 3.96415501 1.7422497 4.64924022 2.76566848 4.16950773 2.76566848 3.42067143 2.76566848"></polygon>
                            <polygon id="Triangle-2" transform="translate(1.158165, 1.471680) rotate(-9.000000) translate(-1.158165, -1.471680) " points="0.291958347 0.177692154 1.33928645 1.7422497 2.02437166 2.76566848 1.54463918 2.76566848 0.79580287 2.76566848"></polygon>
                            <polygon id="Triangle-2" transform="translate(2.470599, 1.471680) rotate(-9.000000) translate(-2.470599, -1.471680) " points="1.60439263 0.177692154 2.65172073 1.7422497 3.33680594 2.76566848 2.85707345 2.76566848 2.10823715 2.76566848"></polygon>
                        </g>
                        <g id="Group-2" transform="translate(137.149382, 0.000000)">
                            <polygon id="Triangle-2" transform="translate(9.032771, 1.471680) rotate(-9.000000) translate(-9.032771, -1.471680) " points="8.16656402 0.177692154 9.21389212 1.7422497 9.89897733 2.76566848 9.41924484 2.76566848 8.67040854 2.76566848"></polygon>
                            <polygon id="Triangle-2" transform="translate(7.720336, 1.471680) rotate(-9.000000) translate(-7.720336, -1.471680) " points="6.85412974 0.177692154 7.90145784 1.7422497 8.58654305 2.76566848 8.10681057 2.76566848 7.35797426 2.76566848"></polygon>
                            <polygon id="Triangle-2" transform="translate(6.407902, 1.471680) rotate(-9.000000) translate(-6.407902, -1.471680) " points="5.54169546 0.177692154 6.58902356 1.7422497 7.27410878 2.76566848 6.79437629 2.76566848 6.04553998 2.76566848"></polygon>
                            <polygon id="Triangle-2" transform="translate(5.095468, 1.471680) rotate(-9.000000) translate(-5.095468, -1.471680) " points="4.22926118 0.177692154 5.27658928 1.7422497 5.9616745 2.76566848 5.48194201 2.76566848 4.7331057 2.76566848"></polygon>
                            <polygon id="Triangle-2" transform="translate(3.783034, 1.471680) rotate(-9.000000) translate(-3.783034, -1.471680) " points="2.9168269 0.177692154 3.96415501 1.7422497 4.64924022 2.76566848 4.16950773 2.76566848 3.42067143 2.76566848"></polygon>
                            <polygon id="Triangle-2" transform="translate(1.158165, 1.471680) rotate(-9.000000) translate(-1.158165, -1.471680) " points="0.291958347 0.177692154 1.33928645 1.7422497 2.02437166 2.76566848 1.54463918 2.76566848 0.79580287 2.76566848"></polygon>
                            <polygon id="Triangle-2" transform="translate(2.470599, 1.471680) rotate(-9.000000) translate(-2.470599, -1.471680) " points="1.60439263 0.177692154 2.65172073 1.7422497 3.33680594 2.76566848 2.85707345 2.76566848 2.10823715 2.76566848"></polygon>
                        </g>
                        <g id="Group-2" transform="translate(118.775302, -0.000000)">
                            <polygon id="Triangle-2" transform="translate(9.032771, 1.471680) rotate(-9.000000) translate(-9.032771, -1.471680) " points="8.16656402 0.177692154 9.21389212 1.7422497 9.89897733 2.76566848 9.41924484 2.76566848 8.67040854 2.76566848"></polygon>
                            <polygon id="Triangle-2" transform="translate(7.720336, 1.471680) rotate(-9.000000) translate(-7.720336, -1.471680) " points="6.85412974 0.177692154 7.90145784 1.7422497 8.58654305 2.76566848 8.10681057 2.76566848 7.35797426 2.76566848"></polygon>
                            <polygon id="Triangle-2" transform="translate(6.407902, 1.471680) rotate(-9.000000) translate(-6.407902, -1.471680) " points="5.54169546 0.177692154 6.58902356 1.7422497 7.27410878 2.76566848 6.79437629 2.76566848 6.04553998 2.76566848"></polygon>
                            <polygon id="Triangle-2" transform="translate(5.095468, 1.471680) rotate(-9.000000) translate(-5.095468, -1.471680) " points="4.22926118 0.177692154 5.27658928 1.7422497 5.9616745 2.76566848 5.48194201 2.76566848 4.7331057 2.76566848"></polygon>
                            <polygon id="Triangle-2" transform="translate(3.783034, 1.471680) rotate(-9.000000) translate(-3.783034, -1.471680) " points="2.9168269 0.177692154 3.96415501 1.7422497 4.64924022 2.76566848 4.16950773 2.76566848 3.42067143 2.76566848"></polygon>
                            <polygon id="Triangle-2" transform="translate(1.158165, 1.471680) rotate(-9.000000) translate(-1.158165, -1.471680) " points="0.291958347 0.177692154 1.33928645 1.7422497 2.02437166 2.76566848 1.54463918 2.76566848 0.79580287 2.76566848"></polygon>
                            <polygon id="Triangle-2" transform="translate(2.470599, 1.471680) rotate(-9.000000) translate(-2.470599, -1.471680) " points="1.60439263 0.177692154 2.65172073 1.7422497 3.33680594 2.76566848 2.85707345 2.76566848 2.10823715 2.76566848"></polygon>
                        </g>
                        <g id="Group-2" transform="translate(109.588262, -0.000000)">
                            <polygon id="Triangle-2" transform="translate(9.032771, 1.471680) rotate(-9.000000) translate(-9.032771, -1.471680) " points="8.16656402 0.177692154 9.21389212 1.7422497 9.89897733 2.76566848 9.41924484 2.76566848 8.67040854 2.76566848"></polygon>
                            <polygon id="Triangle-2" transform="translate(7.720336, 1.471680) rotate(-9.000000) translate(-7.720336, -1.471680) " points="6.85412974 0.177692154 7.90145784 1.7422497 8.58654305 2.76566848 8.10681057 2.76566848 7.35797426 2.76566848"></polygon>
                            <polygon id="Triangle-2" transform="translate(6.407902, 1.471680) rotate(-9.000000) translate(-6.407902, -1.471680) " points="5.54169546 0.177692154 6.58902356 1.7422497 7.27410878 2.76566848 6.79437629 2.76566848 6.04553998 2.76566848"></polygon>
                            <polygon id="Triangle-2" transform="translate(5.095468, 1.471680) rotate(-9.000000) translate(-5.095468, -1.471680) " points="4.22926118 0.177692154 5.27658928 1.7422497 5.9616745 2.76566848 5.48194201 2.76566848 4.7331057 2.76566848"></polygon>
                            <polygon id="Triangle-2" transform="translate(3.783034, 1.471680) rotate(-9.000000) translate(-3.783034, -1.471680) " points="2.9168269 0.177692154 3.96415501 1.7422497 4.64924022 2.76566848 4.16950773 2.76566848 3.42067143 2.76566848"></polygon>
                            <polygon id="Triangle-2" transform="translate(1.158165, 1.471680) rotate(-9.000000) translate(-1.158165, -1.471680) " points="0.291958347 0.177692154 1.33928645 1.7422497 2.02437166 2.76566848 1.54463918 2.76566848 0.79580287 2.76566848"></polygon>
                            <polygon id="Triangle-2" transform="translate(2.470599, 1.471680) rotate(-9.000000) translate(-2.470599, -1.471680) " points="1.60439263 0.177692154 2.65172073 1.7422497 3.33680594 2.76566848 2.85707345 2.76566848 2.10823715 2.76566848"></polygon>
                        </g>
                        <g id="Group-2" transform="translate(127.962342, 0.000000)">
                            <polygon id="Triangle-2" transform="translate(9.032771, 1.471680) rotate(-9.000000) translate(-9.032771, -1.471680) " points="8.16656402 0.177692154 9.21389212 1.7422497 9.89897733 2.76566848 9.41924484 2.76566848 8.67040854 2.76566848"></polygon>
                            <polygon id="Triangle-2" transform="translate(7.720336, 1.471680) rotate(-9.000000) translate(-7.720336, -1.471680) " points="6.85412974 0.177692154 7.90145784 1.7422497 8.58654305 2.76566848 8.10681057 2.76566848 7.35797426 2.76566848"></polygon>
                            <polygon id="Triangle-2" transform="translate(6.407902, 1.471680) rotate(-9.000000) translate(-6.407902, -1.471680) " points="5.54169546 0.177692154 6.58902356 1.7422497 7.27410878 2.76566848 6.79437629 2.76566848 6.04553998 2.76566848"></polygon>
                            <polygon id="Triangle-2" transform="translate(5.095468, 1.471680) rotate(-9.000000) translate(-5.095468, -1.471680) " points="4.22926118 0.177692154 5.27658928 1.7422497 5.9616745 2.76566848 5.48194201 2.76566848 4.7331057 2.76566848"></polygon>
                            <polygon id="Triangle-2" transform="translate(3.783034, 1.471680) rotate(-9.000000) translate(-3.783034, -1.471680) " points="2.9168269 0.177692154 3.96415501 1.7422497 4.64924022 2.76566848 4.16950773 2.76566848 3.42067143 2.76566848"></polygon>
                            <polygon id="Triangle-2" transform="translate(1.158165, 1.471680) rotate(-9.000000) translate(-1.158165, -1.471680) " points="0.291958347 0.177692154 1.33928645 1.7422497 2.02437166 2.76566848 1.54463918 2.76566848 0.79580287 2.76566848"></polygon>
                            <polygon id="Triangle-2" transform="translate(2.470599, 1.471680) rotate(-9.000000) translate(-2.470599, -1.471680) " points="1.60439263 0.177692154 2.65172073 1.7422497 3.33680594 2.76566848 2.85707345 2.76566848 2.10823715 2.76566848"></polygon>
                        </g>
                        <g id="Group-2" transform="translate(137.149382, 0.000000)">
                            <polygon id="Triangle-2" transform="translate(9.032771, 1.471680) rotate(-9.000000) translate(-9.032771, -1.471680) " points="8.16656402 0.177692154 9.21389212 1.7422497 9.89897733 2.76566848 9.41924484 2.76566848 8.67040854 2.76566848"></polygon>
                            <polygon id="Triangle-2" transform="translate(7.720336, 1.471680) rotate(-9.000000) translate(-7.720336, -1.471680) " points="6.85412974 0.177692154 7.90145784 1.7422497 8.58654305 2.76566848 8.10681057 2.76566848 7.35797426 2.76566848"></polygon>
                            <polygon id="Triangle-2" transform="translate(6.407902, 1.471680) rotate(-9.000000) translate(-6.407902, -1.471680) " points="5.54169546 0.177692154 6.58902356 1.7422497 7.27410878 2.76566848 6.79437629 2.76566848 6.04553998 2.76566848"></polygon>
                            <polygon id="Triangle-2" transform="translate(5.095468, 1.471680) rotate(-9.000000) translate(-5.095468, -1.471680) " points="4.22926118 0.177692154 5.27658928 1.7422497 5.9616745 2.76566848 5.48194201 2.76566848 4.7331057 2.76566848"></polygon>
                            <polygon id="Triangle-2" transform="translate(3.783034, 1.471680) rotate(-9.000000) translate(-3.783034, -1.471680) " points="2.9168269 0.177692154 3.96415501 1.7422497 4.64924022 2.76566848 4.16950773 2.76566848 3.42067143 2.76566848"></polygon>
                            <polygon id="Triangle-2" transform="translate(1.158165, 1.471680) rotate(-9.000000) translate(-1.158165, -1.471680) " points="0.291958347 0.177692154 1.33928645 1.7422497 2.02437166 2.76566848 1.54463918 2.76566848 0.79580287 2.76566848"></polygon>
                            <polygon id="Triangle-2" transform="translate(2.470599, 1.471680) rotate(-9.000000) translate(-2.470599, -1.471680) " points="1.60439263 0.177692154 2.65172073 1.7422497 3.33680594 2.76566848 2.85707345 2.76566848 2.10823715 2.76566848"></polygon>
                        </g>
                        <g id="Group-2" transform="translate(118.775302, -0.000000)">
                            <polygon id="Triangle-2" transform="translate(9.032771, 1.471680) rotate(-9.000000) translate(-9.032771, -1.471680) " points="8.16656402 0.177692154 9.21389212 1.7422497 9.89897733 2.76566848 9.41924484 2.76566848 8.67040854 2.76566848"></polygon>
                            <polygon id="Triangle-2" transform="translate(7.720336, 1.471680) rotate(-9.000000) translate(-7.720336, -1.471680) " points="6.85412974 0.177692154 7.90145784 1.7422497 8.58654305 2.76566848 8.10681057 2.76566848 7.35797426 2.76566848"></polygon>
                            <polygon id="Triangle-2" transform="translate(6.407902, 1.471680) rotate(-9.000000) translate(-6.407902, -1.471680) " points="5.54169546 0.177692154 6.58902356 1.7422497 7.27410878 2.76566848 6.79437629 2.76566848 6.04553998 2.76566848"></polygon>
                            <polygon id="Triangle-2" transform="translate(5.095468, 1.471680) rotate(-9.000000) translate(-5.095468, -1.471680) " points="4.22926118 0.177692154 5.27658928 1.7422497 5.9616745 2.76566848 5.48194201 2.76566848 4.7331057 2.76566848"></polygon>
                            <polygon id="Triangle-2" transform="translate(3.783034, 1.471680) rotate(-9.000000) translate(-3.783034, -1.471680) " points="2.9168269 0.177692154 3.96415501 1.7422497 4.64924022 2.76566848 4.16950773 2.76566848 3.42067143 2.76566848"></polygon>
                            <polygon id="Triangle-2" transform="translate(1.158165, 1.471680) rotate(-9.000000) translate(-1.158165, -1.471680) " points="0.291958347 0.177692154 1.33928645 1.7422497 2.02437166 2.76566848 1.54463918 2.76566848 0.79580287 2.76566848"></polygon>
                            <polygon id="Triangle-2" transform="translate(2.470599, 1.471680) rotate(-9.000000) translate(-2.470599, -1.471680) " points="1.60439263 0.177692154 2.65172073 1.7422497 3.33680594 2.76566848 2.85707345 2.76566848 2.10823715 2.76566848"></polygon>
                        </g>
                        <g id="Group-2" transform="translate(146.336422, -0.000000)">
                            <polygon id="Triangle-2" transform="translate(9.032771, 1.471680) rotate(-9.000000) translate(-9.032771, -1.471680) " points="8.16656402 0.177692154 9.21389212 1.7422497 9.89897733 2.76566848 9.41924484 2.76566848 8.67040854 2.76566848"></polygon>
                            <polygon id="Triangle-2" transform="translate(7.720336, 1.471680) rotate(-9.000000) translate(-7.720336, -1.471680) " points="6.85412974 0.177692154 7.90145784 1.7422497 8.58654305 2.76566848 8.10681057 2.76566848 7.35797426 2.76566848"></polygon>
                            <polygon id="Triangle-2" transform="translate(6.407902, 1.471680) rotate(-9.000000) translate(-6.407902, -1.471680) " points="5.54169546 0.177692154 6.58902356 1.7422497 7.27410878 2.76566848 6.79437629 2.76566848 6.04553998 2.76566848"></polygon>
                            <polygon id="Triangle-2" transform="translate(5.095468, 1.471680) rotate(-9.000000) translate(-5.095468, -1.471680) " points="4.22926118 0.177692154 5.27658928 1.7422497 5.9616745 2.76566848 5.48194201 2.76566848 4.7331057 2.76566848"></polygon>
                            <polygon id="Triangle-2" transform="translate(3.783034, 1.471680) rotate(-9.000000) translate(-3.783034, -1.471680) " points="2.9168269 0.177692154 3.96415501 1.7422497 4.64924022 2.76566848 4.16950773 2.76566848 3.42067143 2.76566848"></polygon>
                            <polygon id="Triangle-2" transform="translate(1.158165, 1.471680) rotate(-9.000000) translate(-1.158165, -1.471680) " points="0.291958347 0.177692154 1.33928645 1.7422497 2.02437166 2.76566848 1.54463918 2.76566848 0.79580287 2.76566848"></polygon>
                            <polygon id="Triangle-2" transform="translate(2.470599, 1.471680) rotate(-9.000000) translate(-2.470599, -1.471680) " points="1.60439263 0.177692154 2.65172073 1.7422497 3.33680594 2.76566848 2.85707345 2.76566848 2.10823715 2.76566848"></polygon>
                        </g>
                        <g id="Group-2" transform="translate(164.710502, -0.000000)">
                            <polygon id="Triangle-2" transform="translate(9.032771, 1.471680) rotate(-9.000000) translate(-9.032771, -1.471680) " points="8.16656402 0.177692154 9.21389212 1.7422497 9.89897733 2.76566848 9.41924484 2.76566848 8.67040854 2.76566848"></polygon>
                            <polygon id="Triangle-2" transform="translate(7.720336, 1.471680) rotate(-9.000000) translate(-7.720336, -1.471680) " points="6.85412974 0.177692154 7.90145784 1.7422497 8.58654305 2.76566848 8.10681057 2.76566848 7.35797426 2.76566848"></polygon>
                            <polygon id="Triangle-2" transform="translate(6.407902, 1.471680) rotate(-9.000000) translate(-6.407902, -1.471680) " points="5.54169546 0.177692154 6.58902356 1.7422497 7.27410878 2.76566848 6.79437629 2.76566848 6.04553998 2.76566848"></polygon>
                            <polygon id="Triangle-2" transform="translate(5.095468, 1.471680) rotate(-9.000000) translate(-5.095468, -1.471680) " points="4.22926118 0.177692154 5.27658928 1.7422497 5.9616745 2.76566848 5.48194201 2.76566848 4.7331057 2.76566848"></polygon>
                            <polygon id="Triangle-2" transform="translate(3.783034, 1.471680) rotate(-9.000000) translate(-3.783034, -1.471680) " points="2.9168269 0.177692154 3.96415501 1.7422497 4.64924022 2.76566848 4.16950773 2.76566848 3.42067143 2.76566848"></polygon>
                            <polygon id="Triangle-2" transform="translate(1.158165, 1.471680) rotate(-9.000000) translate(-1.158165, -1.471680) " points="0.291958347 0.177692154 1.33928645 1.7422497 2.02437166 2.76566848 1.54463918 2.76566848 0.79580287 2.76566848"></polygon>
                            <polygon id="Triangle-2" transform="translate(2.470599, 1.471680) rotate(-9.000000) translate(-2.470599, -1.471680) " points="1.60439263 0.177692154 2.65172073 1.7422497 3.33680594 2.76566848 2.85707345 2.76566848 2.10823715 2.76566848"></polygon>
                        </g>
                        <g id="Group-2" transform="translate(173.897542, -0.000000)">
                            <polygon id="Triangle-2" transform="translate(9.032771, 1.471680) rotate(-9.000000) translate(-9.032771, -1.471680) " points="8.16656402 0.177692154 9.21389212 1.7422497 9.89897733 2.76566848 9.41924484 2.76566848 8.67040854 2.76566848"></polygon>
                            <polygon id="Triangle-2" transform="translate(7.720336, 1.471680) rotate(-9.000000) translate(-7.720336, -1.471680) " points="6.85412974 0.177692154 7.90145784 1.7422497 8.58654305 2.76566848 8.10681057 2.76566848 7.35797426 2.76566848"></polygon>
                            <polygon id="Triangle-2" transform="translate(6.407902, 1.471680) rotate(-9.000000) translate(-6.407902, -1.471680) " points="5.54169546 0.177692154 6.58902356 1.7422497 7.27410878 2.76566848 6.79437629 2.76566848 6.04553998 2.76566848"></polygon>
                            <polygon id="Triangle-2" transform="translate(5.095468, 1.471680) rotate(-9.000000) translate(-5.095468, -1.471680) " points="4.22926118 0.177692154 5.27658928 1.7422497 5.9616745 2.76566848 5.48194201 2.76566848 4.7331057 2.76566848"></polygon>
                            <polygon id="Triangle-2" transform="translate(3.783034, 1.471680) rotate(-9.000000) translate(-3.783034, -1.471680) " points="2.9168269 0.177692154 3.96415501 1.7422497 4.64924022 2.76566848 4.16950773 2.76566848 3.42067143 2.76566848"></polygon>
                            <polygon id="Triangle-2" transform="translate(1.158165, 1.471680) rotate(-9.000000) translate(-1.158165, -1.471680) " points="0.291958347 0.177692154 1.33928645 1.7422497 2.02437166 2.76566848 1.54463918 2.76566848 0.79580287 2.76566848"></polygon>
                            <polygon id="Triangle-2" transform="translate(2.470599, 1.471680) rotate(-9.000000) translate(-2.470599, -1.471680) " points="1.60439263 0.177692154 2.65172073 1.7422497 3.33680594 2.76566848 2.85707345 2.76566848 2.10823715 2.76566848"></polygon>
                        </g>
                        <g id="Group-2" transform="translate(155.523462, -0.000000)">
                            <polygon id="Triangle-2" transform="translate(9.032771, 1.471680) rotate(-9.000000) translate(-9.032771, -1.471680) " points="8.16656402 0.177692154 9.21389212 1.7422497 9.89897733 2.76566848 9.41924484 2.76566848 8.67040854 2.76566848"></polygon>
                            <polygon id="Triangle-2" transform="translate(7.720336, 1.471680) rotate(-9.000000) translate(-7.720336, -1.471680) " points="6.85412974 0.177692154 7.90145784 1.7422497 8.58654305 2.76566848 8.10681057 2.76566848 7.35797426 2.76566848"></polygon>
                            <polygon id="Triangle-2" transform="translate(6.407902, 1.471680) rotate(-9.000000) translate(-6.407902, -1.471680) " points="5.54169546 0.177692154 6.58902356 1.7422497 7.27410878 2.76566848 6.79437629 2.76566848 6.04553998 2.76566848"></polygon>
                            <polygon id="Triangle-2" transform="translate(5.095468, 1.471680) rotate(-9.000000) translate(-5.095468, -1.471680) " points="4.22926118 0.177692154 5.27658928 1.7422497 5.9616745 2.76566848 5.48194201 2.76566848 4.7331057 2.76566848"></polygon>
                            <polygon id="Triangle-2" transform="translate(3.783034, 1.471680) rotate(-9.000000) translate(-3.783034, -1.471680) " points="2.9168269 0.177692154 3.96415501 1.7422497 4.64924022 2.76566848 4.16950773 2.76566848 3.42067143 2.76566848"></polygon>
                            <polygon id="Triangle-2" transform="translate(1.158165, 1.471680) rotate(-9.000000) translate(-1.158165, -1.471680) " points="0.291958347 0.177692154 1.33928645 1.7422497 2.02437166 2.76566848 1.54463918 2.76566848 0.79580287 2.76566848"></polygon>
                            <polygon id="Triangle-2" transform="translate(2.470599, 1.471680) rotate(-9.000000) translate(-2.470599, -1.471680) " points="1.60439263 0.177692154 2.65172073 1.7422497 3.33680594 2.76566848 2.85707345 2.76566848 2.10823715 2.76566848"></polygon>
                        </g>
                        <g id="Group-2" transform="translate(146.336422, -0.000000)">
                            <polygon id="Triangle-2" transform="translate(9.032771, 1.471680) rotate(-9.000000) translate(-9.032771, -1.471680) " points="8.16656402 0.177692154 9.21389212 1.7422497 9.89897733 2.76566848 9.41924484 2.76566848 8.67040854 2.76566848"></polygon>
                            <polygon id="Triangle-2" transform="translate(7.720336, 1.471680) rotate(-9.000000) translate(-7.720336, -1.471680) " points="6.85412974 0.177692154 7.90145784 1.7422497 8.58654305 2.76566848 8.10681057 2.76566848 7.35797426 2.76566848"></polygon>
                            <polygon id="Triangle-2" transform="translate(6.407902, 1.471680) rotate(-9.000000) translate(-6.407902, -1.471680) " points="5.54169546 0.177692154 6.58902356 1.7422497 7.27410878 2.76566848 6.79437629 2.76566848 6.04553998 2.76566848"></polygon>
                            <polygon id="Triangle-2" transform="translate(5.095468, 1.471680) rotate(-9.000000) translate(-5.095468, -1.471680) " points="4.22926118 0.177692154 5.27658928 1.7422497 5.9616745 2.76566848 5.48194201 2.76566848 4.7331057 2.76566848"></polygon>
                            <polygon id="Triangle-2" transform="translate(3.783034, 1.471680) rotate(-9.000000) translate(-3.783034, -1.471680) " points="2.9168269 0.177692154 3.96415501 1.7422497 4.64924022 2.76566848 4.16950773 2.76566848 3.42067143 2.76566848"></polygon>
                            <polygon id="Triangle-2" transform="translate(1.158165, 1.471680) rotate(-9.000000) translate(-1.158165, -1.471680) " points="0.291958347 0.177692154 1.33928645 1.7422497 2.02437166 2.76566848 1.54463918 2.76566848 0.79580287 2.76566848"></polygon>
                            <polygon id="Triangle-2" transform="translate(2.470599, 1.471680) rotate(-9.000000) translate(-2.470599, -1.471680) " points="1.60439263 0.177692154 2.65172073 1.7422497 3.33680594 2.76566848 2.85707345 2.76566848 2.10823715 2.76566848"></polygon>
                        </g>
                        <g id="Group-2" transform="translate(164.710502, -0.000000)">
                            <polygon id="Triangle-2" transform="translate(9.032771, 1.471680) rotate(-9.000000) translate(-9.032771, -1.471680) " points="8.16656402 0.177692154 9.21389212 1.7422497 9.89897733 2.76566848 9.41924484 2.76566848 8.67040854 2.76566848"></polygon>
                            <polygon id="Triangle-2" transform="translate(7.720336, 1.471680) rotate(-9.000000) translate(-7.720336, -1.471680) " points="6.85412974 0.177692154 7.90145784 1.7422497 8.58654305 2.76566848 8.10681057 2.76566848 7.35797426 2.76566848"></polygon>
                            <polygon id="Triangle-2" transform="translate(6.407902, 1.471680) rotate(-9.000000) translate(-6.407902, -1.471680) " points="5.54169546 0.177692154 6.58902356 1.7422497 7.27410878 2.76566848 6.79437629 2.76566848 6.04553998 2.76566848"></polygon>
                            <polygon id="Triangle-2" transform="translate(5.095468, 1.471680) rotate(-9.000000) translate(-5.095468, -1.471680) " points="4.22926118 0.177692154 5.27658928 1.7422497 5.9616745 2.76566848 5.48194201 2.76566848 4.7331057 2.76566848"></polygon>
                            <polygon id="Triangle-2" transform="translate(3.783034, 1.471680) rotate(-9.000000) translate(-3.783034, -1.471680) " points="2.9168269 0.177692154 3.96415501 1.7422497 4.64924022 2.76566848 4.16950773 2.76566848 3.42067143 2.76566848"></polygon>
                            <polygon id="Triangle-2" transform="translate(1.158165, 1.471680) rotate(-9.000000) translate(-1.158165, -1.471680) " points="0.291958347 0.177692154 1.33928645 1.7422497 2.02437166 2.76566848 1.54463918 2.76566848 0.79580287 2.76566848"></polygon>
                            <polygon id="Triangle-2" transform="translate(2.470599, 1.471680) rotate(-9.000000) translate(-2.470599, -1.471680) " points="1.60439263 0.177692154 2.65172073 1.7422497 3.33680594 2.76566848 2.85707345 2.76566848 2.10823715 2.76566848"></polygon>
                        </g>
                        <g id="Group-2" transform="translate(173.897542, -0.000000)">
                            <polygon id="Triangle-2" transform="translate(9.032771, 1.471680) rotate(-9.000000) translate(-9.032771, -1.471680) " points="8.16656402 0.177692154 9.21389212 1.7422497 9.89897733 2.76566848 9.41924484 2.76566848 8.67040854 2.76566848"></polygon>
                            <polygon id="Triangle-2" transform="translate(7.720336, 1.471680) rotate(-9.000000) translate(-7.720336, -1.471680) " points="6.85412974 0.177692154 7.90145784 1.7422497 8.58654305 2.76566848 8.10681057 2.76566848 7.35797426 2.76566848"></polygon>
                            <polygon id="Triangle-2" transform="translate(6.407902, 1.471680) rotate(-9.000000) translate(-6.407902, -1.471680) " points="5.54169546 0.177692154 6.58902356 1.7422497 7.27410878 2.76566848 6.79437629 2.76566848 6.04553998 2.76566848"></polygon>
                            <polygon id="Triangle-2" transform="translate(5.095468, 1.471680) rotate(-9.000000) translate(-5.095468, -1.471680) " points="4.22926118 0.177692154 5.27658928 1.7422497 5.9616745 2.76566848 5.48194201 2.76566848 4.7331057 2.76566848"></polygon>
                            <polygon id="Triangle-2" transform="translate(3.783034, 1.471680) rotate(-9.000000) translate(-3.783034, -1.471680) " points="2.9168269 0.177692154 3.96415501 1.7422497 4.64924022 2.76566848 4.16950773 2.76566848 3.42067143 2.76566848"></polygon>
                            <polygon id="Triangle-2" transform="translate(1.158165, 1.471680) rotate(-9.000000) translate(-1.158165, -1.471680) " points="0.291958347 0.177692154 1.33928645 1.7422497 2.02437166 2.76566848 1.54463918 2.76566848 0.79580287 2.76566848"></polygon>
                            <polygon id="Triangle-2" transform="translate(2.470599, 1.471680) rotate(-9.000000) translate(-2.470599, -1.471680) " points="1.60439263 0.177692154 2.65172073 1.7422497 3.33680594 2.76566848 2.85707345 2.76566848 2.10823715 2.76566848"></polygon>
                        </g>
                        <g id="Group-2" transform="translate(155.523462, -0.000000)">
                            <polygon id="Triangle-2" transform="translate(9.032771, 1.471680) rotate(-9.000000) translate(-9.032771, -1.471680) " points="8.16656402 0.177692154 9.21389212 1.7422497 9.89897733 2.76566848 9.41924484 2.76566848 8.67040854 2.76566848"></polygon>
                            <polygon id="Triangle-2" transform="translate(7.720336, 1.471680) rotate(-9.000000) translate(-7.720336, -1.471680) " points="6.85412974 0.177692154 7.90145784 1.7422497 8.58654305 2.76566848 8.10681057 2.76566848 7.35797426 2.76566848"></polygon>
                            <polygon id="Triangle-2" transform="translate(6.407902, 1.471680) rotate(-9.000000) translate(-6.407902, -1.471680) " points="5.54169546 0.177692154 6.58902356 1.7422497 7.27410878 2.76566848 6.79437629 2.76566848 6.04553998 2.76566848"></polygon>
                            <polygon id="Triangle-2" transform="translate(5.095468, 1.471680) rotate(-9.000000) translate(-5.095468, -1.471680) " points="4.22926118 0.177692154 5.27658928 1.7422497 5.9616745 2.76566848 5.48194201 2.76566848 4.7331057 2.76566848"></polygon>
                            <polygon id="Triangle-2" transform="translate(3.783034, 1.471680) rotate(-9.000000) translate(-3.783034, -1.471680) " points="2.9168269 0.177692154 3.96415501 1.7422497 4.64924022 2.76566848 4.16950773 2.76566848 3.42067143 2.76566848"></polygon>
                            <polygon id="Triangle-2" transform="translate(1.158165, 1.471680) rotate(-9.000000) translate(-1.158165, -1.471680) " points="0.291958347 0.177692154 1.33928645 1.7422497 2.02437166 2.76566848 1.54463918 2.76566848 0.79580287 2.76566848"></polygon>
                            <polygon id="Triangle-2" transform="translate(2.470599, 1.471680) rotate(-9.000000) translate(-2.470599, -1.471680) " points="1.60439263 0.177692154 2.65172073 1.7422497 3.33680594 2.76566848 2.85707345 2.76566848 2.10823715 2.76566848"></polygon>
                        </g>
                        <g id="Group-2" transform="translate(-0.000000, -0.000000)">
                            <polygon id="Triangle-2" transform="translate(9.032771, 1.471680) rotate(-9.000000) translate(-9.032771, -1.471680) " points="8.16656402 0.177692154 9.21389212 1.7422497 9.89897733 2.76566848 9.41924484 2.76566848 8.67040854 2.76566848"></polygon>
                            <polygon id="Triangle-2" transform="translate(7.720336, 1.471680) rotate(-9.000000) translate(-7.720336, -1.471680) " points="6.85412974 0.177692154 7.90145784 1.7422497 8.58654305 2.76566848 8.10681057 2.76566848 7.35797426 2.76566848"></polygon>
                            <polygon id="Triangle-2" transform="translate(6.407902, 1.471680) rotate(-9.000000) translate(-6.407902, -1.471680) " points="5.54169546 0.177692154 6.58902356 1.7422497 7.27410878 2.76566848 6.79437629 2.76566848 6.04553998 2.76566848"></polygon>
                            <polygon id="Triangle-2" transform="translate(5.095468, 1.471680) rotate(-9.000000) translate(-5.095468, -1.471680) " points="4.22926118 0.177692154 5.27658928 1.7422497 5.9616745 2.76566848 5.48194201 2.76566848 4.7331057 2.76566848"></polygon>
                            <polygon id="Triangle-2" transform="translate(3.783034, 1.471680) rotate(-9.000000) translate(-3.783034, -1.471680) " points="2.9168269 0.177692154 3.96415501 1.7422497 4.64924022 2.76566848 4.16950773 2.76566848 3.42067143 2.76566848"></polygon>
                            <polygon id="Triangle-2" transform="translate(1.158165, 1.471680) rotate(-9.000000) translate(-1.158165, -1.471680) " points="0.291958347 0.177692154 1.33928645 1.7422497 2.02437166 2.76566848 1.54463918 2.76566848 0.79580287 2.76566848"></polygon>
                            <polygon id="Triangle-2" transform="translate(2.470599, 1.471680) rotate(-9.000000) translate(-2.470599, -1.471680) " points="1.60439263 0.177692154 2.65172073 1.7422497 3.33680594 2.76566848 2.85707345 2.76566848 2.10823715 2.76566848"></polygon>
                        </g>
                        <g id="Group-2" transform="translate(18.374080, 0.000000)">
                            <polygon id="Triangle-2" transform="translate(9.032771, 1.471680) rotate(-9.000000) translate(-9.032771, -1.471680) " points="8.16656402 0.177692154 9.21389212 1.7422497 9.89897733 2.76566848 9.41924484 2.76566848 8.67040854 2.76566848"></polygon>
                            <polygon id="Triangle-2" transform="translate(7.720336, 1.471680) rotate(-9.000000) translate(-7.720336, -1.471680) " points="6.85412974 0.177692154 7.90145784 1.7422497 8.58654305 2.76566848 8.10681057 2.76566848 7.35797426 2.76566848"></polygon>
                            <polygon id="Triangle-2" transform="translate(6.407902, 1.471680) rotate(-9.000000) translate(-6.407902, -1.471680) " points="5.54169546 0.177692154 6.58902356 1.7422497 7.27410878 2.76566848 6.79437629 2.76566848 6.04553998 2.76566848"></polygon>
                            <polygon id="Triangle-2" transform="translate(5.095468, 1.471680) rotate(-9.000000) translate(-5.095468, -1.471680) " points="4.22926118 0.177692154 5.27658928 1.7422497 5.9616745 2.76566848 5.48194201 2.76566848 4.7331057 2.76566848"></polygon>
                            <polygon id="Triangle-2" transform="translate(3.783034, 1.471680) rotate(-9.000000) translate(-3.783034, -1.471680) " points="2.9168269 0.177692154 3.96415501 1.7422497 4.64924022 2.76566848 4.16950773 2.76566848 3.42067143 2.76566848"></polygon>
                            <polygon id="Triangle-2" transform="translate(1.158165, 1.471680) rotate(-9.000000) translate(-1.158165, -1.471680) " points="0.291958347 0.177692154 1.33928645 1.7422497 2.02437166 2.76566848 1.54463918 2.76566848 0.79580287 2.76566848"></polygon>
                            <polygon id="Triangle-2" transform="translate(2.470599, 1.471680) rotate(-9.000000) translate(-2.470599, -1.471680) " points="1.60439263 0.177692154 2.65172073 1.7422497 3.33680594 2.76566848 2.85707345 2.76566848 2.10823715 2.76566848"></polygon>
                        </g>
                        <g id="Group-2" transform="translate(27.561120, -0.000000)">
                            <polygon id="Triangle-2" transform="translate(6.407902, 1.471680) rotate(-9.000000) translate(-6.407902, -1.471680) " points="5.54169546 0.177692154 6.58902356 1.7422497 7.27410878 2.76566848 6.79437629 2.76566848 6.04553998 2.76566848"></polygon>
                            <polygon id="Triangle-2" transform="translate(5.095468, 1.471680) rotate(-9.000000) translate(-5.095468, -1.471680) " points="4.22926118 0.177692154 5.27658928 1.7422497 5.9616745 2.76566848 5.48194201 2.76566848 4.7331057 2.76566848"></polygon>
                            <polygon id="Triangle-2" transform="translate(3.783034, 1.471680) rotate(-9.000000) translate(-3.783034, -1.471680) " points="2.9168269 0.177692154 3.96415501 1.7422497 4.64924022 2.76566848 4.16950773 2.76566848 3.42067143 2.76566848"></polygon>
                            <polygon id="Triangle-2" transform="translate(1.158165, 1.471680) rotate(-9.000000) translate(-1.158165, -1.471680) " points="0.291958347 0.177692154 1.33928645 1.7422497 2.02437166 2.76566848 1.54463918 2.76566848 0.79580287 2.76566848"></polygon>
                            <polygon id="Triangle-2" transform="translate(2.470599, 1.471680) rotate(-9.000000) translate(-2.470599, -1.471680) " points="1.60439263 0.177692154 2.65172073 1.7422497 3.33680594 2.76566848 2.85707345 2.76566848 2.10823715 2.76566848"></polygon>
                        </g>
                        <g id="Group-2" transform="translate(9.187040, 0.000000)">
                            <polygon id="Triangle-2" transform="translate(9.032771, 1.471680) rotate(-9.000000) translate(-9.032771, -1.471680) " points="8.16656402 0.177692154 9.21389212 1.7422497 9.89897733 2.76566848 9.41924484 2.76566848 8.67040854 2.76566848"></polygon>
                            <polygon id="Triangle-2" transform="translate(7.720336, 1.471680) rotate(-9.000000) translate(-7.720336, -1.471680) " points="6.85412974 0.177692154 7.90145784 1.7422497 8.58654305 2.76566848 8.10681057 2.76566848 7.35797426 2.76566848"></polygon>
                            <polygon id="Triangle-2" transform="translate(6.407902, 1.471680) rotate(-9.000000) translate(-6.407902, -1.471680) " points="5.54169546 0.177692154 6.58902356 1.7422497 7.27410878 2.76566848 6.79437629 2.76566848 6.04553998 2.76566848"></polygon>
                            <polygon id="Triangle-2" transform="translate(5.095468, 1.471680) rotate(-9.000000) translate(-5.095468, -1.471680) " points="4.22926118 0.177692154 5.27658928 1.7422497 5.9616745 2.76566848 5.48194201 2.76566848 4.7331057 2.76566848"></polygon>
                            <polygon id="Triangle-2" transform="translate(3.783034, 1.471680) rotate(-9.000000) translate(-3.783034, -1.471680) " points="2.9168269 0.177692154 3.96415501 1.7422497 4.64924022 2.76566848 4.16950773 2.76566848 3.42067143 2.76566848"></polygon>
                            <polygon id="Triangle-2" transform="translate(1.158165, 1.471680) rotate(-9.000000) translate(-1.158165, -1.471680) " points="0.291958347 0.177692154 1.33928645 1.7422497 2.02437166 2.76566848 1.54463918 2.76566848 0.79580287 2.76566848"></polygon>
                            <polygon id="Triangle-2" transform="translate(2.470599, 1.471680) rotate(-9.000000) translate(-2.470599, -1.471680) " points="1.60439263 0.177692154 2.65172073 1.7422497 3.33680594 2.76566848 2.85707345 2.76566848 2.10823715 2.76566848"></polygon>
                        </g>
                        <g id="Group-2" transform="translate(-0.000000, -0.000000)">
                            <polygon id="Triangle-2" transform="translate(9.032771, 1.471680) rotate(-9.000000) translate(-9.032771, -1.471680) " points="8.16656402 0.177692154 9.21389212 1.7422497 9.89897733 2.76566848 9.41924484 2.76566848 8.67040854 2.76566848"></polygon>
                            <polygon id="Triangle-2" transform="translate(7.720336, 1.471680) rotate(-9.000000) translate(-7.720336, -1.471680) " points="6.85412974 0.177692154 7.90145784 1.7422497 8.58654305 2.76566848 8.10681057 2.76566848 7.35797426 2.76566848"></polygon>
                            <polygon id="Triangle-2" transform="translate(6.407902, 1.471680) rotate(-9.000000) translate(-6.407902, -1.471680) " points="5.54169546 0.177692154 6.58902356 1.7422497 7.27410878 2.76566848 6.79437629 2.76566848 6.04553998 2.76566848"></polygon>
                            <polygon id="Triangle-2" transform="translate(5.095468, 1.471680) rotate(-9.000000) translate(-5.095468, -1.471680) " points="4.22926118 0.177692154 5.27658928 1.7422497 5.9616745 2.76566848 5.48194201 2.76566848 4.7331057 2.76566848"></polygon>
                            <polygon id="Triangle-2" transform="translate(3.783034, 1.471680) rotate(-9.000000) translate(-3.783034, -1.471680) " points="2.9168269 0.177692154 3.96415501 1.7422497 4.64924022 2.76566848 4.16950773 2.76566848 3.42067143 2.76566848"></polygon>
                            <polygon id="Triangle-2" transform="translate(1.158165, 1.471680) rotate(-9.000000) translate(-1.158165, -1.471680) " points="0.291958347 0.177692154 1.33928645 1.7422497 2.02437166 2.76566848 1.54463918 2.76566848 0.79580287 2.76566848"></polygon>
                            <polygon id="Triangle-2" transform="translate(2.470599, 1.471680) rotate(-9.000000) translate(-2.470599, -1.471680) " points="1.60439263 0.177692154 2.65172073 1.7422497 3.33680594 2.76566848 2.85707345 2.76566848 2.10823715 2.76566848"></polygon>
                        </g>
                        <g id="Group-2" transform="translate(18.374080, 0.000000)">
                            <polygon id="Triangle-2" transform="translate(9.032771, 1.471680) rotate(-9.000000) translate(-9.032771, -1.471680) " points="8.16656402 0.177692154 9.21389212 1.7422497 9.89897733 2.76566848 9.41924484 2.76566848 8.67040854 2.76566848"></polygon>
                            <polygon id="Triangle-2" transform="translate(7.720336, 1.471680) rotate(-9.000000) translate(-7.720336, -1.471680) " points="6.85412974 0.177692154 7.90145784 1.7422497 8.58654305 2.76566848 8.10681057 2.76566848 7.35797426 2.76566848"></polygon>
                            <polygon id="Triangle-2" transform="translate(6.407902, 1.471680) rotate(-9.000000) translate(-6.407902, -1.471680) " points="5.54169546 0.177692154 6.58902356 1.7422497 7.27410878 2.76566848 6.79437629 2.76566848 6.04553998 2.76566848"></polygon>
                            <polygon id="Triangle-2" transform="translate(5.095468, 1.471680) rotate(-9.000000) translate(-5.095468, -1.471680) " points="4.22926118 0.177692154 5.27658928 1.7422497 5.9616745 2.76566848 5.48194201 2.76566848 4.7331057 2.76566848"></polygon>
                            <polygon id="Triangle-2" transform="translate(3.783034, 1.471680) rotate(-9.000000) translate(-3.783034, -1.471680) " points="2.9168269 0.177692154 3.96415501 1.7422497 4.64924022 2.76566848 4.16950773 2.76566848 3.42067143 2.76566848"></polygon>
                            <polygon id="Triangle-2" transform="translate(1.158165, 1.471680) rotate(-9.000000) translate(-1.158165, -1.471680) " points="0.291958347 0.177692154 1.33928645 1.7422497 2.02437166 2.76566848 1.54463918 2.76566848 0.79580287 2.76566848"></polygon>
                            <polygon id="Triangle-2" transform="translate(2.470599, 1.471680) rotate(-9.000000) translate(-2.470599, -1.471680) " points="1.60439263 0.177692154 2.65172073 1.7422497 3.33680594 2.76566848 2.85707345 2.76566848 2.10823715 2.76566848"></polygon>
                        </g>
                        <g id="Group-2" transform="translate(27.561120, -0.000000)">
                            <polygon id="Triangle-2" transform="translate(9.364334, 1.954595) rotate(-9.000000) translate(-9.364334, -1.954595) " points="8.24063003 0.455197226 9.59929793 2.2681153 10.4880388 3.45399332 9.86569597 3.45399332 8.89425269 3.45399332"></polygon>
                            <polygon id="Triangle-2" transform="translate(7.877792, 1.580230) rotate(-9.000000) translate(-7.877792, -1.580230) " points="7.01158495 0.286242244 8.05891305 1.85079979 8.74399826 2.87421857 8.26426577 2.87421857 7.51542947 2.87421857"></polygon>
                            <polygon id="Triangle-2" transform="translate(6.407902, 1.471680) rotate(-9.000000) translate(-6.407902, -1.471680) " points="5.54169546 0.177692154 6.58902356 1.7422497 7.27410878 2.76566848 6.79437629 2.76566848 6.04553998 2.76566848"></polygon>
                            <polygon id="Triangle-2" transform="translate(5.095468, 1.471680) rotate(-9.000000) translate(-5.095468, -1.471680) " points="4.22926118 0.177692154 5.27658928 1.7422497 5.9616745 2.76566848 5.48194201 2.76566848 4.7331057 2.76566848"></polygon>
                            <polygon id="Triangle-2" transform="translate(3.783034, 1.471680) rotate(-9.000000) translate(-3.783034, -1.471680) " points="2.9168269 0.177692154 3.96415501 1.7422497 4.64924022 2.76566848 4.16950773 2.76566848 3.42067143 2.76566848"></polygon>
                            <polygon id="Triangle-2" transform="translate(1.158165, 1.471680) rotate(-9.000000) translate(-1.158165, -1.471680) " points="0.291958347 0.177692154 1.33928645 1.7422497 2.02437166 2.76566848 1.54463918 2.76566848 0.79580287 2.76566848"></polygon>
                            <polygon id="Triangle-2" transform="translate(2.470599, 1.471680) rotate(-9.000000) translate(-2.470599, -1.471680) " points="1.60439263 0.177692154 2.65172073 1.7422497 3.33680594 2.76566848 2.85707345 2.76566848 2.10823715 2.76566848"></polygon>
                        </g>
                        <g id="Group-2" transform="translate(9.187040, 0.000000)">
                            <polygon id="Triangle-2" transform="translate(9.032771, 1.471680) rotate(-9.000000) translate(-9.032771, -1.471680) " points="8.16656402 0.177692154 9.21389212 1.7422497 9.89897733 2.76566848 9.41924484 2.76566848 8.67040854 2.76566848"></polygon>
                            <polygon id="Triangle-2" transform="translate(7.720336, 1.471680) rotate(-9.000000) translate(-7.720336, -1.471680) " points="6.85412974 0.177692154 7.90145784 1.7422497 8.58654305 2.76566848 8.10681057 2.76566848 7.35797426 2.76566848"></polygon>
                            <polygon id="Triangle-2" transform="translate(6.407902, 1.471680) rotate(-9.000000) translate(-6.407902, -1.471680) " points="5.54169546 0.177692154 6.58902356 1.7422497 7.27410878 2.76566848 6.79437629 2.76566848 6.04553998 2.76566848"></polygon>
                            <polygon id="Triangle-2" transform="translate(5.095468, 1.471680) rotate(-9.000000) translate(-5.095468, -1.471680) " points="4.22926118 0.177692154 5.27658928 1.7422497 5.9616745 2.76566848 5.48194201 2.76566848 4.7331057 2.76566848"></polygon>
                            <polygon id="Triangle-2" transform="translate(3.783034, 1.471680) rotate(-9.000000) translate(-3.783034, -1.471680) " points="2.9168269 0.177692154 3.96415501 1.7422497 4.64924022 2.76566848 4.16950773 2.76566848 3.42067143 2.76566848"></polygon>
                            <polygon id="Triangle-2" transform="translate(1.158165, 1.471680) rotate(-9.000000) translate(-1.158165, -1.471680) " points="0.291958347 0.177692154 1.33928645 1.7422497 2.02437166 2.76566848 1.54463918 2.76566848 0.79580287 2.76566848"></polygon>
                            <polygon id="Triangle-2" transform="translate(2.470599, 1.471680) rotate(-9.000000) translate(-2.470599, -1.471680) " points="1.60439263 0.177692154 2.65172073 1.7422497 3.33680594 2.76566848 2.85707345 2.76566848 2.10823715 2.76566848"></polygon>
                        </g>
                    </g>
                </g>
                <g id="Group">
                    <path d="M7.16497655,0 L53.6630154,0 L53.6630154,14.6648641 L51.7037958,17.8348014 L36.4193596,42.5643953 L7.16497655,42.5643953 C4.29388713,42.0378728 2.49820726,41.4210423 1.77793695,40.7139038 C-0.108972862,38.8613956 0.165468737,35.6530784 0.165468737,30.8626676 C0.165468737,25.4718866 6.2034457,14.9839932 8.59295659,6.77244699 C9.22608367,4.59670788 8.75009033,2.33922555 7.16497655,0 Z M30.52491,3.76618569 L30.52491,3.76618569 C27.6295123,3.74411513 24.9481708,5.28828244 23.5140825,7.80367615 L23.5140857,7.80367793 C23.3420411,8.10544435 23.1950123,8.37511356 23.0729991,8.61268557 C21.2878638,12.0885234 19.4024345,16.4590674 19.1444303,18.5603426 C18.9131554,20.4439252 16.787031,29.458529 18.3206035,33.1808369 C18.5327234,33.6956971 18.396064,32.5951871 18.6016169,33.8975573 C18.6546371,34.2334901 19.0014046,35.2959372 19.6419194,37.0848986 C20.2075827,38.6647995 21.6992606,39.7236554 23.3773245,39.7364467 L23.3773245,39.7364519 L27.629079,39.7688615 C30.3664386,39.7897274 32.7708598,37.9551897 33.4736868,35.3095126 L40.174133,10.0867786 C40.2821228,9.68026867 40.3383873,9.26175698 40.3415934,8.84115996 C40.3626421,6.07981643 38.1411942,3.82424186 35.3798507,3.80319314 L35.3798507,3.80319314 L30.52491,3.76618569 Z" id="Combined-Shape" fill="#8D7067"></path>
                    <path d="M53.2717406,14.7097542 L36.5716551,42.2514218" id="Line" stroke="#1B0202" stroke-linecap="square"></path>
                    <path d="M26.0300818,4.48083735 L24.2390442,6.21755187 L23.4947254,7.47663831 C22.7668295,8.9395828 22.2399384,10.0131762 21.9140521,10.6974186 C20.0180702,14.6782882 19.52964,18.1073024 18.7788279,20.6671519 C18.4648499,21.7376415 18.0297501,23.0616637 17.9160374,23.8836477 C17.7572271,25.0316252 17.1231501,26.1305951 17.339432,27.7678337 C17.4132362,28.3265265 17.3623376,29.9530896 17.9160374,31.9920181 C18.2680628,33.2883061 19.135873,35.7965918 20.519468,39.5168751" id="Line" stroke="#1B0202" stroke-linecap="square"></path>
                </g>
            </g>
            <g id="Lippel" transform="translate(161.000000, 34.500000) rotate(-1.000000) translate(-161.000000, -34.500000) " stroke="#979797">
                <use fill="#947870" fill-opacity="1" stroke-opacity="1" filter="url(#filter-3)" xlink:href="#text-2"></use>
                <use fill="#947870" fill-opacity="1" stroke-opacity="1" xlink:href="#text-2"></use>
                <use xlink:href="#text-2"></use>
            </g>
        </g>
    </g>
</svg>